<svg xmlns="http://www.w3.org/2000/svg" viewBox="0 0 1200 630">
  <defs>
    <linearGradient id="bg" x1="0" y1="0" x2="1" y2="1">
      <stop offset="0%" stop-color="#0a0a0f"/>
      <stop offset="100%" stop-color="#12121a"/>
    </linearGradient>
    <linearGradient id="purple" x1="0" y1="0" x2="1" y2="0">
      <stop offset="0%" stop-color="#7c3aed"/>
      <stop offset="100%" stop-color="#a855f7"/>
    </linearGradient>
  </defs>

  <!-- Background -->
  <rect width="1200" height="630" fill="url(#bg)"/>

  <!-- Subtle grid -->
  <g opacity="0.05" stroke="#a855f7" stroke-width="0.5">
    <line x1="100" y1="0" x2="100" y2="630"/>
    <line x1="200" y1="0" x2="200" y2="630"/>
    <line x1="300" y1="0" x2="300" y2="630"/>
    <line x1="400" y1="0" x2="400" y2="630"/>
    <line x1="500" y1="0" x2="500" y2="630"/>
    <line x1="600" y1="0" x2="600" y2="630"/>
    <line x1="700" y1="0" x2="700" y2="630"/>
    <line x1="800" y1="0" x2="800" y2="630"/>
    <line x1="900" y1="0" x2="900" y2="630"/>
    <line x1="1000" y1="0" x2="1000" y2="630"/>
    <line x1="1100" y1="0" x2="1100" y2="630"/>
  </g>

  <!-- Neural network dots -->
  <g opacity="0.15">
    <circle cx="850" cy="180" r="4" fill="#a855f7"/>
    <circle cx="920" cy="220" r="3" fill="#c084fc"/>
    <circle cx="880" cy="280" r="5" fill="#7c3aed"/>
    <circle cx="950" cy="160" r="3" fill="#a855f7"/>
    <circle cx="1000" cy="240" r="4" fill="#c084fc"/>
    <circle cx="960" cy="310" r="3" fill="#7c3aed"/>
    <circle cx="1050" cy="200" r="4" fill="#a855f7"/>
    <circle cx="1020" cy="280" r="3" fill="#c084fc"/>
    <circle cx="1080" cy="260" r="5" fill="#7c3aed"/>
    <circle cx="1100" cy="180" r="3" fill="#a855f7"/>
    <line x1="850" y1="180" x2="920" y2="220" stroke="#a855f7" stroke-width="0.5"/>
    <line x1="920" y1="220" x2="880" y2="280" stroke="#a855f7" stroke-width="0.5"/>
    <line x1="950" y1="160" x2="1000" y2="240" stroke="#a855f7" stroke-width="0.5"/>
    <line x1="1000" y1="240" x2="960" y2="310" stroke="#a855f7" stroke-width="0.5"/>
    <line x1="1050" y1="200" x2="1020" y2="280" stroke="#a855f7" stroke-width="0.5"/>
    <line x1="1020" y1="280" x2="1080" y2="260" stroke="#c084fc" stroke-width="0.5"/>
    <line x1="880" y1="280" x2="960" y2="310" stroke="#c084fc" stroke-width="0.5"/>
    <line x1="920" y1="220" x2="1000" y2="240" stroke="#c084fc" stroke-width="0.5"/>
    <line x1="1050" y1="200" x2="1100" y2="180" stroke="#c084fc" stroke-width="0.5"/>
  </g>

  <!-- Title -->
  <text x="80" y="220" font-family="system-ui,-apple-system,sans-serif" font-weight="200" font-size="96" fill="white" letter-spacing="-0.03em">compile</text>

  <!-- Purple accent line -->
  <rect x="80" y="248" width="60" height="2" fill="url(#purple)" rx="1"/>

  <!-- Tagline -->
  <text x="80" y="300" font-family="system-ui,-apple-system,sans-serif" font-weight="400" font-size="28" fill="#9ca3af">We design biological brains.</text>
  <text x="80" y="338" font-family="system-ui,-apple-system,sans-serif" font-weight="400" font-size="28" fill="#9ca3af">Synthetic neuroscience starts now.</text>

  <!-- Stats bar -->
  <g transform="translate(80, 410)">
    <text font-family="system-ui,-apple-system,sans-serif" font-weight="200" font-size="42" fill="white">22</text>
    <text y="24" font-family="system-ui,-apple-system,sans-serif" font-weight="500" font-size="11" fill="#6b7280" letter-spacing="0.1em">RESULTS</text>

    <text x="140" font-family="system-ui,-apple-system,sans-serif" font-weight="200" font-size="42" fill="white">2</text>
    <text x="140" y="24" font-family="system-ui,-apple-system,sans-serif" font-weight="500" font-size="11" fill="#6b7280" letter-spacing="0.1em">SPECIES</text>

    <text x="260" font-family="system-ui,-apple-system,sans-serif" font-weight="200" font-size="42" fill="white">8,158</text>
    <text x="260" y="24" font-family="system-ui,-apple-system,sans-serif" font-weight="500" font-size="11" fill="#6b7280" letter-spacing="0.1em">NEURON PROCESSOR</text>

    <text x="500" font-family="system-ui,-apple-system,sans-serif" font-weight="200" font-size="42" fill="#22c55e">851</text>
    <text x="500" y="24" font-family="system-ui,-apple-system,sans-serif" font-weight="500" font-size="11" fill="#6b7280" letter-spacing="0.1em">GROWN FROM SPEC</text>

    <text x="680" font-family="system-ui,-apple-system,sans-serif" font-weight="200" font-size="42" fill="#6b7280">577</text>
    <text x="680" y="24" font-family="system-ui,-apple-system,sans-serif" font-weight="500" font-size="11" fill="#6b7280" letter-spacing="0.1em">REAL FLYWIRE</text>
  </g>

  <!-- Bottom bar -->
  <rect x="0" y="580" width="1200" height="50" fill="#0a0a0f" opacity="0.5"/>
  <text x="80" y="612" font-family="system-ui,-apple-system,sans-serif" font-weight="400" font-size="14" fill="#6b7280">compile.now</text>
  <text x="1120" y="612" text-anchor="end" font-family="system-ui,-apple-system,sans-serif" font-weight="400" font-size="14" fill="#a855f7">founders@compile.now</text>
</svg>
